<svg fill="#0594d1" xmlns="http://www.w3.org/2000/svg" data-name="Layer 1" viewBox="0 0 64 64"><path d="M46.284,39.383l-.331-.185a7.122,7.122,0,0,0,0-1.651l.328-.183a1.78,1.78,0,0,0,.861-1.093,1.72,1.72,0,0,0-.193-1.348l-1.288-2.134a1.834,1.834,0,0,0-2.437-.641l-.376.208a7.988,7.988,0,0,0-1.555-.867v-.348a1.789,1.789,0,0,0-1.8-1.768H36.912a1.789,1.789,0,0,0-1.8,1.768v.348a7.914,7.914,0,0,0-1.553.867l-.377-.208a1.834,1.834,0,0,0-2.436.641l-1.29,2.134a1.727,1.727,0,0,0-.192,1.349,1.785,1.785,0,0,0,.858,1.091l.331.184a7.1,7.1,0,0,0-.048.826,7.266,7.266,0,0,0,.048.825l-.33.184a1.783,1.783,0,0,0-.859,1.091,1.723,1.723,0,0,0,.193,1.349l1.288,2.134a1.84,1.84,0,0,0,2.438.641l.376-.208a7.881,7.881,0,0,0,1.553.867V45.6a1.789,1.789,0,0,0,1.8,1.769h2.577a1.789,1.789,0,0,0,1.8-1.769v-.348a7.919,7.919,0,0,0,1.555-.867l.376.207a1.832,1.832,0,0,0,2.437-.64l1.287-2.132a1.722,1.722,0,0,0,.194-1.35A1.777,1.777,0,0,0,46.284,39.383ZM44,38.373a5.149,5.149,0,0,1-.054.738,1.75,1.75,0,0,0,.9,1.762l.253.141-1.058,1.751-.324-.18a1.867,1.867,0,0,0-1.991.144,5.762,5.762,0,0,1-1.284.712,1.789,1.789,0,0,0-1.152,1.649v.283H37.108V45.09a1.788,1.788,0,0,0-1.152-1.649,5.8,5.8,0,0,1-1.284-.712,1.855,1.855,0,0,0-1.989-.144l-.325.18L31.3,41.014l.249-.139a1.754,1.754,0,0,0,.9-1.768,5.1,5.1,0,0,1,0-1.473,1.754,1.754,0,0,0-.9-1.763l-.252-.14,1.057-1.751.324.179a1.861,1.861,0,0,0,1.991-.143,5.848,5.848,0,0,1,1.284-.712,1.788,1.788,0,0,0,1.151-1.649v-.282h2.185v.282A1.786,1.786,0,0,0,40.445,33.3a5.835,5.835,0,0,1,1.285.715,1.869,1.869,0,0,0,1.99.142l.324-.18L45.1,35.731l-.248.138a1.754,1.754,0,0,0-.907,1.766A5.128,5.128,0,0,1,44,38.373Z"/><path d="M53.05,48.979a1,1,0,0,0-1.414,0l-.707.707-2.863-2.863a13.028,13.028,0,1,0-1.415,1.413L49.515,51.1l-.707.707a1,1,0,0,0,0,1.414l8.485,8.485a1,1,0,0,0,1.414,0l2.828-2.828a1,1,0,0,0,0-1.414ZM45.979,46.15A11,11,0,1,1,49.2,38.372,10.921,10.921,0,0,1,45.979,46.15ZM58,59.586l-7.071-7.071L52.343,51.1l7.071,7.071Z"/><path d="M38.2,34.373a4,4,0,1,0,4,4A4,4,0,0,0,38.2,34.373Zm0,6a2,2,0,1,1,2-2A2,2,0,0,1,38.2,40.373Z"/><path d="M19,3V5H9A1,1,0,0,0,8,6V57a1,1,0,0,0,1,1H49V56H10V7h9V9a1,1,0,0,0,1,1H43a1,1,0,0,0,1-1V7H54V46h2V6a1,1,0,0,0-1-1H44V3a1,1,0,0,0-1-1H20A1,1,0,0,0,19,3Zm2,1H42V8H21Z"/><rect width="34" height="2" x="15" y="14"/><rect width="22" height="2" x="15" y="20"/><rect width="11" height="2" x="15" y="26"/><path d="M22,32H16a1,1,0,0,0-1,1v6a1,1,0,0,0,1,1h6a1,1,0,0,0,1-1V33A1,1,0,0,0,22,32Zm-1,6H17V34h4Z"/><rect width="8" height="2" x="15" y="44"/><rect width="12" height="2" x="15" y="50"/></svg>